<mxfile host="www.draw.io" modified="2020-09-11T03:28:49.436Z" agent="5.0 (Windows NT 10.0; Win64; x64) AppleWebKit/537.36 (KHTML, like Gecko) Chrome/85.0.4183.83 Safari/537.36" etag="rrrbpT0JeDw84qK_UsFE" version="13.4.3" type="github">
  <diagram id="a8WNXdf4oxJ8tC1yrQ7G" name="第 1 页">
    <mxGraphModel dx="1865" dy="580" grid="1" gridSize="10" guides="1" tooltips="1" connect="1" arrows="1" fold="1" page="1" pageScale="1" pageWidth="827" pageHeight="1169" math="0" shadow="0">
      <root>
        <mxCell id="0" />
        <mxCell id="1" parent="0" />
        <mxCell id="EnXhz0Jxau0yECvmE3Yw-1" value="数仓" style="shape=cube;whiteSpace=wrap;html=1;boundedLbl=1;backgroundOutline=1;darkOpacity=0.05;darkOpacity2=0.1;" vertex="1" parent="1">
          <mxGeometry x="30" y="450" width="120" height="80" as="geometry" />
        </mxCell>
        <mxCell id="EnXhz0Jxau0yECvmE3Yw-2" value="企业数据库" style="shape=cube;whiteSpace=wrap;html=1;boundedLbl=1;backgroundOutline=1;darkOpacity=0.05;darkOpacity2=0.1;" vertex="1" parent="1">
          <mxGeometry x="270" y="450" width="120" height="80" as="geometry" />
        </mxCell>
        <mxCell id="EnXhz0Jxau0yECvmE3Yw-5" style="edgeStyle=orthogonalEdgeStyle;rounded=0;orthogonalLoop=1;jettySize=auto;html=1;exitX=0;exitY=0.5;exitDx=0;exitDy=0;" edge="1" parent="1" source="EnXhz0Jxau0yECvmE3Yw-3" target="EnXhz0Jxau0yECvmE3Yw-1">
          <mxGeometry relative="1" as="geometry" />
        </mxCell>
        <mxCell id="EnXhz0Jxau0yECvmE3Yw-8" value="业务主题与映射数据预校验或者预抽取" style="edgeLabel;html=1;align=center;verticalAlign=middle;resizable=0;points=[];" vertex="1" connectable="0" parent="EnXhz0Jxau0yECvmE3Yw-5">
          <mxGeometry x="0.1106" y="1" relative="1" as="geometry">
            <mxPoint as="offset" />
          </mxGeometry>
        </mxCell>
        <mxCell id="EnXhz0Jxau0yECvmE3Yw-6" style="edgeStyle=orthogonalEdgeStyle;rounded=0;orthogonalLoop=1;jettySize=auto;html=1;" edge="1" parent="1" source="EnXhz0Jxau0yECvmE3Yw-3" target="EnXhz0Jxau0yECvmE3Yw-2">
          <mxGeometry relative="1" as="geometry" />
        </mxCell>
        <mxCell id="EnXhz0Jxau0yECvmE3Yw-11" value="业务主题与映射数据预校验或者预抽取" style="edgeLabel;html=1;align=center;verticalAlign=middle;resizable=0;points=[];" vertex="1" connectable="0" parent="EnXhz0Jxau0yECvmE3Yw-6">
          <mxGeometry x="0.2629" relative="1" as="geometry">
            <mxPoint as="offset" />
          </mxGeometry>
        </mxCell>
        <mxCell id="EnXhz0Jxau0yECvmE3Yw-18" style="edgeStyle=orthogonalEdgeStyle;rounded=0;orthogonalLoop=1;jettySize=auto;html=1;exitX=1;exitY=0;exitDx=0;exitDy=0;entryX=0;entryY=0.5;entryDx=0;entryDy=0;" edge="1" parent="1" source="EnXhz0Jxau0yECvmE3Yw-3" target="EnXhz0Jxau0yECvmE3Yw-17">
          <mxGeometry relative="1" as="geometry" />
        </mxCell>
        <mxCell id="EnXhz0Jxau0yECvmE3Yw-3" value="主题模板引擎" style="rounded=0;whiteSpace=wrap;html=1;" vertex="1" parent="1">
          <mxGeometry x="130" y="290" width="120" height="60" as="geometry" />
        </mxCell>
        <mxCell id="EnXhz0Jxau0yECvmE3Yw-4" value="主图模板页面" style="rounded=0;whiteSpace=wrap;html=1;" vertex="1" parent="1">
          <mxGeometry x="130" y="160" width="120" height="60" as="geometry" />
        </mxCell>
        <mxCell id="EnXhz0Jxau0yECvmE3Yw-7" value="" style="endArrow=classic;startArrow=classic;html=1;exitX=0.5;exitY=0;exitDx=0;exitDy=0;" edge="1" parent="1" source="EnXhz0Jxau0yECvmE3Yw-3" target="EnXhz0Jxau0yECvmE3Yw-4">
          <mxGeometry width="50" height="50" relative="1" as="geometry">
            <mxPoint x="330" y="270" as="sourcePoint" />
            <mxPoint x="190" y="223" as="targetPoint" />
          </mxGeometry>
        </mxCell>
        <mxCell id="EnXhz0Jxau0yECvmE3Yw-9" value="" style="shape=flexArrow;endArrow=classic;html=1;" edge="1" parent="1">
          <mxGeometry width="50" height="50" relative="1" as="geometry">
            <mxPoint x="260" y="300" as="sourcePoint" />
            <mxPoint x="310" y="250" as="targetPoint" />
          </mxGeometry>
        </mxCell>
        <mxCell id="EnXhz0Jxau0yECvmE3Yw-10" value="生成主题模板：由主题服务实现，服务是代码和sql组成" style="shape=note;whiteSpace=wrap;html=1;backgroundOutline=1;darkOpacity=0.05;" vertex="1" parent="1">
          <mxGeometry x="320" y="160" width="80" height="100" as="geometry" />
        </mxCell>
        <mxCell id="EnXhz0Jxau0yECvmE3Yw-13" value="" style="shape=flexArrow;endArrow=classic;html=1;" edge="1" parent="1">
          <mxGeometry width="50" height="50" relative="1" as="geometry">
            <mxPoint x="190" y="160" as="sourcePoint" />
            <mxPoint x="240" y="110" as="targetPoint" />
          </mxGeometry>
        </mxCell>
        <mxCell id="EnXhz0Jxau0yECvmE3Yw-14" value="收集需求与专家主题模板，主题模板可以在页面配置内容与数据存储的映射，管理模板，预览" style="shape=note;whiteSpace=wrap;html=1;backgroundOutline=1;darkOpacity=0.05;" vertex="1" parent="1">
          <mxGeometry x="250" y="20" width="80" height="100" as="geometry" />
        </mxCell>
        <mxCell id="EnXhz0Jxau0yECvmE3Yw-15" value="" style="shape=flexArrow;endArrow=classic;html=1;width=17;endSize=2.55;" edge="1" parent="1">
          <mxGeometry width="50" height="50" relative="1" as="geometry">
            <mxPoint x="130" y="300" as="sourcePoint" />
            <mxPoint x="80" y="230" as="targetPoint" />
          </mxGeometry>
        </mxCell>
        <mxCell id="EnXhz0Jxau0yECvmE3Yw-16" value="高频查询内容抽取参考生成模板" style="shape=note;whiteSpace=wrap;html=1;backgroundOutline=1;darkOpacity=0.05;" vertex="1" parent="1">
          <mxGeometry x="-20" y="160" width="80" height="100" as="geometry" />
        </mxCell>
        <mxCell id="EnXhz0Jxau0yECvmE3Yw-17" value="存储组成模板的片段" style="whiteSpace=wrap;html=1;aspect=fixed;" vertex="1" parent="1">
          <mxGeometry x="550" y="270" width="80" height="80" as="geometry" />
        </mxCell>
      </root>
    </mxGraphModel>
  </diagram>
</mxfile>
